<svg width="173" height="32" viewBox="0 0 173 32" fill="none" xmlns="http://www.w3.org/2000/svg">
    <path d="M86.6677 31.4369V28.4386H86.5823C85.9813 29.668 85.0388 30.5524 83.7548 31.0954C82.4708 31.6384 81.057 31.9082 79.5134 31.9082C77.7991 31.9082 76.3068 31.594 75.0365 30.9657C73.7661 30.3373 72.7075 29.4938 71.8674 28.4386C71.0239 27.3834 70.3888 26.154 69.9619 24.7539C69.535 23.3538 69.3199 21.8683 69.3199 20.3008C69.3199 18.7334 69.5282 17.2445 69.9414 15.8478C70.3546 14.4476 70.9829 13.2285 71.8264 12.187C72.6665 11.1454 73.7251 10.3156 74.9955 9.70431C76.2658 9.08962 77.7445 8.78228 79.4281 8.78228C79.9984 8.78228 80.6131 8.84033 81.2687 8.95302C81.9244 9.06572 82.5835 9.26037 83.2391 9.53015C83.8948 9.80334 84.5163 10.1585 85.1037 10.6024C85.6876 11.0464 86.1794 11.5962 86.5823 12.2518H86.6677V0.859644H90.308V31.4437H86.6677V31.4369ZM73.5817 23.5757C73.8515 24.5592 74.2681 25.4403 74.8247 26.2087C75.3814 26.9804 76.0951 27.5951 76.9659 28.0493C77.8367 28.5069 78.8578 28.7357 80.0291 28.7357C81.2004 28.7357 82.3 28.4932 83.1572 28.0083C84.0143 27.5234 84.7144 26.8882 85.2573 26.1028C85.8003 25.3174 86.193 24.4261 86.4355 23.4255C86.678 22.4249 86.7975 21.4141 86.7975 20.3862C86.7975 19.3003 86.6677 18.2519 86.4116 17.2376C86.1555 16.2234 85.7491 15.3321 85.1925 14.5603C84.6358 13.7886 83.9153 13.167 83.0308 12.6958C82.1464 12.2245 81.0741 11.9889 79.8174 11.9889C78.5607 11.9889 77.5464 12.2314 76.6893 12.7163C75.8321 13.2012 75.1457 13.8432 74.6335 14.6423C74.1178 15.4414 73.749 16.3566 73.5202 17.3845C73.2914 18.4124 73.1787 19.471 73.1787 20.5535C73.1787 21.5814 73.3153 22.5888 73.5851 23.5723L73.5817 23.5757Z" fill="white"/>
    <path d="M58.6782 9.29984H54.6179V31.4354H58.6782V9.29984Z" fill="white"/>
    <path d="M62.7355 13.3606H58.6751V17.4209H62.7355V13.3606Z" fill="white"/>
    <path d="M67.8471 9.29984H62.735V13.3602H67.8471V9.29984Z" fill="white"/>
    <path d="M163.021 9.29984H158.961V31.4354H163.021V9.29984Z" fill="white"/>
    <path d="M167.081 13.3606H163.021V17.4209H167.081V13.3606Z" fill="white"/>
    <path d="M172.194 9.29984H167.082V13.3602H172.194V9.29984Z" fill="white"/>
    <path d="M110.62 12.2452H106.563V16.3021H110.62V12.2452Z" fill="white"/>
    <path d="M106.562 16.3129H102.505V20.3698H106.562V16.3129Z" fill="white"/>
    <path d="M102.505 20.3684H98.4482V24.4253H102.505V20.3684Z" fill="white"/>
    <path d="M98.4452 24.4256H94.3883V28.4826H98.4452V24.4256Z" fill="white"/>
    <path d="M110.619 9.29984H94.3883V13.3602H110.619V9.29984Z" fill="white"/>
    <path d="M110.619 27.371H94.3883V31.4313H110.619V27.371Z" fill="white"/>
    <path d="M134.155 31.3525C133.527 31.7248 132.656 31.9092 131.542 31.9092C130.6 31.9092 129.849 31.6462 129.292 31.1169C128.735 30.5876 128.455 29.7236 128.455 28.525C127.455 29.7236 126.294 30.5876 124.965 31.1169C123.637 31.6462 122.203 31.9092 120.659 31.9092C119.659 31.9092 118.709 31.7931 117.811 31.5677C116.913 31.3389 116.134 30.9837 115.475 30.4988C114.816 30.0139 114.297 29.3787 113.911 28.5933C113.525 27.8078 113.334 26.8585 113.334 25.7452C113.334 24.4885 113.549 23.4606 113.976 22.6615C114.406 21.8624 114.97 21.2136 115.67 20.7116C116.37 20.213 117.169 19.834 118.067 19.5779C118.965 19.3217 119.887 19.1066 120.83 18.9359C121.83 18.7378 122.78 18.5875 123.678 18.4851C124.576 18.3861 125.372 18.2426 126.055 18.0582C126.741 17.8738 127.281 17.6006 127.684 17.2455C128.083 16.8903 128.285 16.3678 128.285 15.6814C128.285 14.8823 128.134 14.2403 127.834 13.7554C127.533 13.2705 127.147 12.8983 126.676 12.6421C126.205 12.386 125.676 12.2153 125.092 12.1265C124.508 12.0411 123.927 11.9967 123.357 11.9967C121.813 11.9967 120.529 12.2904 119.501 12.8744C118.474 13.4583 117.917 14.5682 117.832 16.1937H114.191C114.249 14.8243 114.533 13.6666 115.048 12.7241C115.564 11.7816 116.247 11.0166 117.104 10.4327C117.961 9.84873 118.938 9.42528 120.038 9.16916C121.137 8.91304 122.315 8.78327 123.572 8.78327C124.573 8.78327 125.563 8.85498 126.55 8.99841C127.533 9.14184 128.428 9.43211 129.227 9.87605C130.026 10.3166 130.668 10.9381 131.153 11.7338C131.638 12.5329 131.881 13.571 131.881 14.8516V26.2199C131.881 27.0736 131.932 27.702 132.031 28.1015C132.13 28.5011 132.465 28.6991 133.038 28.6991C133.352 28.6991 133.725 28.6411 134.151 28.5284V31.356L134.155 31.3525ZM128.244 20.0013C127.786 20.3428 127.185 20.5921 126.444 20.7458C125.703 20.9029 124.924 21.0292 124.108 21.1282C123.295 21.2273 122.472 21.3434 121.646 21.4697C120.816 21.5995 120.075 21.8044 119.419 22.0878C118.764 22.3713 118.228 22.7776 117.814 23.3035C117.401 23.8294 117.193 24.5466 117.193 25.4549C117.193 26.0526 117.316 26.5546 117.558 26.9678C117.801 27.381 118.115 27.7156 118.501 27.9683C118.887 28.2245 119.338 28.4089 119.85 28.5216C120.362 28.6343 120.905 28.6923 121.479 28.6923C122.677 28.6923 123.705 28.5284 124.562 28.204C125.42 27.8761 126.12 27.4663 126.663 26.9678C127.206 26.4692 127.605 25.9296 127.861 25.3491C128.117 24.7651 128.247 24.2188 128.247 23.7099V20.0013H128.244Z" fill="white"/>
    <path d="M156.493 31.3525C155.864 31.7248 154.993 31.9092 153.88 31.9092C152.938 31.9092 152.186 31.6462 151.63 31.1169C151.073 30.5876 150.793 29.7236 150.793 28.525C149.792 29.7236 148.631 30.5876 147.303 31.1169C145.975 31.6462 144.54 31.9092 142.997 31.9092C141.996 31.9092 141.047 31.7931 140.149 31.5677C139.251 31.3389 138.472 30.9837 137.813 30.4988C137.154 30.0139 136.635 29.3787 136.249 28.5933C135.863 27.8078 135.672 26.8585 135.672 25.7452C135.672 24.4885 135.887 23.4606 136.314 22.6615C136.744 21.8624 137.308 21.2136 138.008 20.7116C138.708 20.213 139.507 19.834 140.405 19.5779C141.303 19.3217 142.225 19.1066 143.168 18.9359C144.168 18.7378 145.117 18.5875 146.016 18.4851C146.914 18.3861 147.709 18.2426 148.392 18.0582C149.079 17.8738 149.618 17.6006 150.021 17.2455C150.421 16.8903 150.622 16.3678 150.622 15.6814C150.622 14.8823 150.472 14.2403 150.172 13.7554C149.871 13.2705 149.485 12.8983 149.014 12.6421C148.543 12.386 148.013 12.2153 147.429 12.1265C146.845 12.0411 146.265 11.9967 145.695 11.9967C144.151 11.9967 142.867 12.2904 141.839 12.8744C140.811 13.4583 140.255 14.5682 140.169 16.1937H136.529C136.587 14.8243 136.87 13.6666 137.386 12.7241C137.902 11.7816 138.585 11.0166 139.442 10.4327C140.299 9.84873 141.276 9.42528 142.375 9.16916C143.475 8.91304 144.653 8.78327 145.91 8.78327C146.91 8.78327 147.901 8.85498 148.888 8.99841C149.871 9.14184 150.766 9.43211 151.565 9.87605C152.364 10.3166 153.006 10.9381 153.491 11.7338C153.976 12.5329 154.218 13.571 154.218 14.8516V26.2199C154.218 27.0736 154.269 27.702 154.368 28.1015C154.468 28.5011 154.802 28.6991 155.376 28.6991C155.69 28.6991 156.062 28.6411 156.489 28.5284V31.356L156.493 31.3525ZM150.581 20.0013C150.124 20.3428 149.523 20.5921 148.782 20.7458C148.041 20.9029 147.262 21.0292 146.446 21.1282C145.633 21.2273 144.81 21.3434 143.984 21.4697C143.154 21.5995 142.413 21.8044 141.757 22.0878C141.102 22.3713 140.565 22.7776 140.152 23.3035C139.739 23.8294 139.531 24.5466 139.531 25.4549C139.531 26.0526 139.654 26.5546 139.896 26.9678C140.138 27.381 140.453 27.7156 140.839 27.9683C141.224 28.2245 141.675 28.4089 142.187 28.5216C142.7 28.6343 143.243 28.6923 143.816 28.6923C145.015 28.6923 146.043 28.5284 146.9 28.204C147.757 27.8761 148.457 27.4663 149 26.9678C149.543 26.4692 149.943 25.9296 150.199 25.3491C150.455 24.7651 150.585 24.2188 150.585 23.7099V20.0013H150.581Z" fill="white"/>
    <path d="M4.06035 4.38437H0V27.3737H4.06035V4.38437Z" fill="white"/>
    <path d="M50.4727 4.38437H46.4124V27.3737H50.4727V4.38437Z" fill="white"/>
    <path d="M46.4118 0.323814H4.05988V4.38417H46.4118V0.323814Z" fill="white"/>
    <path d="M46.4118 27.3745H4.05988V31.4348H46.4118V27.3745Z" fill="white"/>
</svg>
